<svg width="19" height="21" viewBox="0 0 19 21" fill="none" xmlns="http://www.w3.org/2000/svg">
<rect x="11" y="2" width="6" height="6" fill="#FD3B3B"/>
<path d="M12 16V17C12 18.6569 10.6569 20 9 20C7.34315 20 6 18.6569 6 17V16.0001M12 16L6 16.0001M12 16H16C16.5523 16 17 15.5523 17 15V14.4141C17 14.1489 16.8945 13.8946 16.707 13.707L16.1963 13.1963C16.0706 13.0706 16 12.9 16 12.7222V9C16 8.82357 15.9936 8.64855 15.9805 8.4761M6 16.0001L2 16.0001C1.44772 16.0001 1 15.5521 1 14.9998V14.4141C1 14.1489 1.10544 13.8949 1.29297 13.7073L1.80371 13.1958C1.92939 13.0701 2 12.9002 2 12.7224V8.99998C2 5.13401 5.134 2 9 2C9.71161 2 10.3984 2.10618 11.0454 2.30357M15.9805 8.4761C17.1868 7.7873 18 6.48861 18 5C18 2.79086 16.2091 1 14 1C12.8298 1 11.7769 1.50253 11.0454 2.30357M15.9805 8.4761C15.3966 8.80949 14.7205 9 14 9C11.7909 9 10 7.20914 10 5C10 3.9611 10.3961 3.0147 11.0454 2.30357M11.0454 2.30357L11.0468 2.304" stroke="white" stroke-width="2" stroke-linecap="round" stroke-linejoin="round"/>
</svg>
